<svg width="32" height="32" viewBox="0 0 32 32" fill="none" xmlns="http://www.w3.org/2000/svg">
<g id="user / group">
<g id="coolicon">
<path d="M11.9998 4C8.31794 4 5.33317 6.98477 5.33317 10.6667C5.33317 14.3486 8.31794 17.3333 11.9998 17.3333C15.6817 17.3333 18.6665 14.3486 18.6665 10.6667C18.6665 6.98477 15.6817 4 11.9998 4ZM7.99984 10.6667C7.99984 8.45753 9.7907 6.66667 11.9998 6.66667C14.209 6.66667 15.9998 8.45753 15.9998 10.6667C15.9998 12.8758 14.209 14.6667 11.9998 14.6667C9.7907 14.6667 7.99984 12.8758 7.99984 10.6667Z" fill="#F7F7FC"/>
<path d="M22.5444 10.9577C22.1693 10.7665 21.7542 10.6667 21.3332 10.6667V8.00008C22.1753 8.00008 23.0055 8.19942 23.7557 8.58193C23.8383 8.62406 23.9197 8.66828 23.9998 8.71453C24.647 9.08818 25.2094 9.59425 25.6496 10.2007C26.1442 10.8823 26.4704 11.6713 26.6015 12.5032C26.7326 13.335 26.6648 14.1861 26.4037 14.9867C26.1427 15.7874 25.6957 16.5148 25.0995 17.1095C24.5032 17.7042 23.7746 18.1492 22.9733 18.4082C22.2602 18.6387 21.5076 18.7159 20.7646 18.6363C20.6726 18.6264 20.5808 18.6141 20.4892 18.5995C19.6582 18.4663 18.8706 18.1384 18.1907 17.6425L18.1893 17.6415L19.7612 15.4874C20.1013 15.7356 20.4954 15.8997 20.9112 15.9663C21.3269 16.033 21.7526 16.0002 22.1532 15.8707C22.5539 15.7412 22.9181 15.5187 23.2163 15.2214C23.5144 14.924 23.7379 14.5603 23.8684 14.16C23.9989 13.7597 24.0328 13.3342 23.9673 12.9183C23.9017 12.5023 23.7386 12.1079 23.4913 11.7671C23.244 11.4263 22.9195 11.149 22.5444 10.9577Z" fill="#F7F7FC"/>
<path d="M26.664 28C26.664 27.2999 26.5261 26.6068 26.2582 25.96C25.9903 25.3132 25.5976 24.7256 25.1026 24.2306C24.6076 23.7355 24.0199 23.3429 23.3732 23.075C22.7264 22.8071 22.0332 22.6692 21.3332 22.6692V20C22.2426 20 23.1443 20.1551 23.9998 20.4575C24.1326 20.5045 24.2642 20.555 24.3946 20.609C25.3652 21.011 26.2472 21.6003 26.99 22.3431C27.7329 23.086 28.3222 23.9679 28.7242 24.9385C28.7782 25.0689 28.8287 25.2006 28.8756 25.3333C29.1781 26.1888 29.3332 27.0906 29.3332 28H26.664Z" fill="#F7F7FC"/>
<path d="M21.3332 28H18.6665C18.6665 24.3181 15.6817 21.3333 11.9998 21.3333C8.31794 21.3333 5.33317 24.3181 5.33317 28H2.6665C2.6665 22.8453 6.84518 18.6667 11.9998 18.6667C17.1545 18.6667 21.3332 22.8453 21.3332 28Z" fill="#F7F7FC"/>
</g>
</g>
</svg>
