<svg width="32" height="32" viewBox="0 0 32 32" fill="none" xmlns="http://www.w3.org/2000/svg">
<g id="menu / more_horizontal">
<path id="coolicon" d="M24.0002 18.6667C22.5274 18.6667 21.3335 17.4728 21.3335 16C21.3335 14.5273 22.5274 13.3334 24.0002 13.3334C25.4729 13.3334 26.6668 14.5273 26.6668 16C26.6668 16.7073 26.3859 17.3856 25.8858 17.8857C25.3857 18.3858 24.7074 18.6667 24.0002 18.6667ZM16.0002 18.6667C14.5274 18.6667 13.3335 17.4728 13.3335 16C13.3335 14.5273 14.5274 13.3334 16.0002 13.3334C17.4729 13.3334 18.6668 14.5273 18.6668 16C18.6668 16.7073 18.3859 17.3856 17.8858 17.8857C17.3857 18.3858 16.7074 18.6667 16.0002 18.6667ZM8.00016 18.6667C6.5274 18.6667 5.3335 17.4728 5.3335 16C5.3335 14.5273 6.5274 13.3334 8.00016 13.3334C9.47292 13.3334 10.6668 14.5273 10.6668 16C10.6668 16.7073 10.3859 17.3856 9.88578 17.8857C9.38568 18.3858 8.70741 18.6667 8.00016 18.6667Z" fill="#F7F7FC"/>
</g>
</svg>
